<svg width="900" height="700" viewBox="0 0 900 700" fill="none" xmlns="http://www.w3.org/2000/svg">
<g clip-path="url(#clip0_56_2)">
<rect width="900" height="700" fill="white"/>
<rect x="0.5" y="0.5" width="899" height="699" fill="#D9D9D9" stroke="black"/>
<rect x="500.495" y="0.5" width="399" height="299" fill="#E8E0D7" stroke="black"/>
<rect x="499.995" y="50" width="5" height="54" fill="#A9A2A2"/>
<path d="M631.685 358.315C631.25 357.88 630.904 357.363 630.669 356.794C630.433 356.225 630.312 355.616 630.312 355C630.312 354.384 630.433 353.775 630.669 353.206C630.904 352.637 631.25 352.12 631.685 351.685M638.315 351.685C638.75 352.12 639.096 352.637 639.331 353.206C639.567 353.775 639.688 354.384 639.688 355C639.688 355.616 639.567 356.225 639.331 356.794C639.096 357.363 638.75 357.88 638.315 358.315M629.034 360.966C628.25 360.183 627.629 359.253 627.205 358.229C626.781 357.205 626.562 356.108 626.562 355C626.562 353.892 626.781 352.795 627.205 351.771C627.629 350.747 628.25 349.817 629.034 349.034M640.966 349.034C641.75 349.817 642.371 350.747 642.795 351.771C643.219 352.795 643.438 353.892 643.438 355C643.438 356.108 643.219 357.205 642.795 358.229C642.371 359.253 641.75 360.183 640.966 360.966M626.382 363.617C621.622 358.859 621.622 351.142 626.382 346.382M643.617 346.382C648.377 351.141 648.377 358.857 643.617 363.617M635 355H635.01V355.01H635V355ZM635.469 355C635.469 355.124 635.419 355.243 635.331 355.331C635.244 355.419 635.124 355.469 635 355.469C634.876 355.469 634.756 355.419 634.669 355.331C634.581 355.243 634.531 355.124 634.531 355C634.531 354.876 634.581 354.756 634.669 354.668C634.756 354.581 634.876 354.531 635 354.531C635.124 354.531 635.244 354.581 635.331 354.668C635.419 354.756 635.469 354.876 635.469 355Z" stroke="black" stroke-width="1.2" stroke-linecap="round" stroke-linejoin="round"/>
<path d="M751.685 118.315C751.25 117.88 750.904 117.363 750.669 116.794C750.433 116.225 750.312 115.616 750.312 115C750.312 114.384 750.433 113.775 750.669 113.206C750.904 112.637 751.25 112.12 751.685 111.685M758.315 111.685C758.75 112.12 759.096 112.637 759.331 113.206C759.567 113.775 759.688 114.384 759.688 115C759.688 115.616 759.567 116.225 759.331 116.794C759.096 117.363 758.75 117.88 758.315 118.315M749.034 120.966C748.25 120.183 747.629 119.253 747.205 118.229C746.781 117.205 746.562 116.108 746.562 115C746.562 113.892 746.781 112.795 747.205 111.771C747.629 110.747 748.25 109.817 749.034 109.034M760.966 109.034C761.75 109.817 762.371 110.747 762.795 111.771C763.219 112.795 763.438 113.892 763.438 115C763.438 116.108 763.219 117.205 762.795 118.229C762.371 119.253 761.75 120.183 760.966 120.966M746.382 123.617C741.622 118.859 741.622 111.142 746.382 106.382M763.617 106.382C768.377 111.141 768.377 118.857 763.617 123.617M755 115H755.01V115.01H755V115ZM755.469 115C755.469 115.124 755.419 115.243 755.331 115.331C755.244 115.419 755.124 115.469 755 115.469C754.876 115.469 754.756 115.419 754.669 115.331C754.581 115.243 754.531 115.124 754.531 115C754.531 114.876 754.581 114.756 754.669 114.668C754.756 114.581 754.876 114.531 755 114.531C755.124 114.531 755.244 114.581 755.331 114.668C755.419 114.756 755.469 114.876 755.469 115Z" stroke="black" stroke-width="1.2" stroke-linecap="round" stroke-linejoin="round"/>
<rect x="0.5" y="0.5" width="399" height="299" fill="#E8E0D7" stroke="black"/>
<rect x="395" y="140" width="5" height="54" fill="#A9A2A2"/>
<rect x="235" y="295" width="54" height="5" fill="#9B9898"/>
<path d="M171.685 118.315C171.25 117.88 170.904 117.363 170.669 116.794C170.433 116.225 170.312 115.616 170.312 115C170.312 114.384 170.433 113.775 170.669 113.206C170.904 112.637 171.25 112.12 171.685 111.685M178.315 111.685C178.75 112.12 179.096 112.637 179.331 113.206C179.567 113.775 179.688 114.384 179.688 115C179.688 115.616 179.567 116.225 179.331 116.794C179.096 117.363 178.75 117.88 178.315 118.315M169.034 120.966C168.25 120.183 167.629 119.253 167.205 118.229C166.781 117.205 166.562 116.108 166.562 115C166.562 113.892 166.781 112.795 167.205 111.771C167.629 110.747 168.25 109.817 169.034 109.034M180.966 109.034C181.75 109.817 182.371 110.747 182.795 111.771C183.219 112.795 183.438 113.892 183.438 115C183.438 116.108 183.219 117.205 182.795 118.229C182.371 119.253 181.75 120.183 180.966 120.966M166.382 123.617C161.622 118.859 161.622 111.142 166.382 106.382M183.617 106.382C188.377 111.141 188.377 118.857 183.617 123.617M175 115H175.01V115.01H175V115ZM175.469 115C175.469 115.124 175.419 115.243 175.331 115.331C175.244 115.419 175.124 115.469 175 115.469C174.876 115.469 174.756 115.419 174.669 115.331C174.581 115.243 174.531 115.124 174.531 115C174.531 114.876 174.581 114.756 174.669 114.668C174.756 114.581 174.876 114.531 175 114.531C175.124 114.531 175.244 114.581 175.331 114.668C175.419 114.756 175.469 114.876 175.469 115Z" stroke="black" stroke-width="1.2" stroke-linecap="round" stroke-linejoin="round"/>
<path d="M381.685 288.315C381.25 287.88 380.904 287.363 380.669 286.794C380.433 286.225 380.312 285.616 380.312 285C380.312 284.384 380.433 283.775 380.669 283.206C380.904 282.637 381.25 282.12 381.685 281.685M388.315 281.685C388.75 282.12 389.096 282.637 389.331 283.206C389.567 283.775 389.688 284.384 389.688 285C389.688 285.616 389.567 286.225 389.331 286.794C389.096 287.363 388.75 287.88 388.315 288.315M379.034 290.966C378.25 290.183 377.629 289.253 377.205 288.229C376.781 287.205 376.562 286.108 376.562 285C376.562 283.892 376.781 282.795 377.205 281.771C377.629 280.747 378.25 279.817 379.034 279.034M390.966 279.034C391.75 279.817 392.371 280.747 392.795 281.771C393.219 282.795 393.438 283.892 393.438 285C393.438 286.108 393.219 287.205 392.795 288.229C392.371 289.253 391.75 290.183 390.966 290.966M376.382 293.617C371.622 288.859 371.622 281.142 376.382 276.382M393.617 276.382C398.377 281.141 398.377 288.857 393.617 293.617M385 285H385.01V285.01H385V285ZM385.469 285C385.469 285.124 385.419 285.243 385.331 285.331C385.244 285.419 385.124 285.469 385 285.469C384.876 285.469 384.756 285.419 384.669 285.331C384.581 285.243 384.531 285.124 384.531 285C384.531 284.876 384.581 284.756 384.669 284.668C384.756 284.581 384.876 284.531 385 284.531C385.124 284.531 385.244 284.581 385.331 284.668C385.419 284.756 385.469 284.876 385.469 285Z" stroke="black" stroke-width="1.2" stroke-linecap="round" stroke-linejoin="round"/>
<path d="M111.685 288.315C111.25 287.88 110.904 287.363 110.669 286.794C110.433 286.225 110.312 285.616 110.312 285C110.312 284.384 110.433 283.775 110.669 283.206C110.904 282.637 111.25 282.12 111.685 281.685M118.315 281.685C118.75 282.12 119.096 282.637 119.331 283.206C119.567 283.775 119.688 284.384 119.688 285C119.688 285.616 119.567 286.225 119.331 286.794C119.096 287.363 118.75 287.88 118.315 288.315M109.034 290.966C108.25 290.183 107.629 289.253 107.205 288.229C106.781 287.205 106.562 286.108 106.562 285C106.562 283.892 106.781 282.795 107.205 281.771C107.629 280.747 108.25 279.817 109.034 279.034M120.966 279.034C121.75 279.817 122.371 280.747 122.795 281.771C123.219 282.795 123.438 283.892 123.438 285C123.438 286.108 123.219 287.205 122.795 288.229C122.371 289.253 121.75 290.183 120.966 290.966M106.382 293.617C101.622 288.859 101.622 281.142 106.382 276.382M123.617 276.382C128.377 281.141 128.377 288.857 123.617 293.617M115 285H115.01V285.01H115V285ZM115.469 285C115.469 285.124 115.419 285.243 115.331 285.331C115.244 285.419 115.124 285.469 115 285.469C114.876 285.469 114.756 285.419 114.669 285.331C114.581 285.243 114.531 285.124 114.531 285C114.531 284.876 114.581 284.756 114.669 284.668C114.756 284.581 114.876 284.531 115 284.531C115.124 284.531 115.244 284.581 115.331 284.668C115.419 284.756 115.469 284.876 115.469 285Z" stroke="black" stroke-width="1.2" stroke-linecap="round" stroke-linejoin="round"/>
<rect x="0.25" y="400.25" width="899.5" height="299.5" fill="#E8E0D7" stroke="black" stroke-width="0.5"/>
<rect x="70" y="400" width="54" height="5" fill="#9B9898"/>
<path d="M161.685 578.315C161.25 577.88 160.904 577.363 160.669 576.794C160.433 576.225 160.312 575.616 160.312 575C160.312 574.384 160.433 573.775 160.669 573.206C160.904 572.637 161.25 572.12 161.685 571.685M168.315 571.685C168.75 572.12 169.096 572.637 169.331 573.206C169.567 573.775 169.688 574.384 169.688 575C169.688 575.616 169.567 576.225 169.331 576.794C169.096 577.363 168.75 577.88 168.315 578.315M159.034 580.966C158.25 580.183 157.629 579.253 157.205 578.229C156.781 577.205 156.562 576.108 156.562 575C156.562 573.892 156.781 572.795 157.205 571.771C157.629 570.747 158.25 569.817 159.034 569.034M170.966 569.034C171.75 569.817 172.371 570.747 172.795 571.771C173.219 572.795 173.438 573.892 173.438 575C173.438 576.108 173.219 577.205 172.795 578.229C172.371 579.253 171.75 580.183 170.966 580.966M156.382 583.618C151.622 578.859 151.622 571.143 156.382 566.383M173.617 566.383C178.377 571.141 178.377 578.858 173.617 583.618M165 575H165.01V575.01H165V575ZM165.469 575C165.469 575.124 165.419 575.244 165.331 575.332C165.244 575.419 165.124 575.469 165 575.469C164.876 575.469 164.756 575.419 164.669 575.332C164.581 575.244 164.531 575.124 164.531 575C164.531 574.876 164.581 574.757 164.669 574.669C164.756 574.581 164.876 574.531 165 574.531C165.124 574.531 165.244 574.581 165.331 574.669C165.419 574.757 165.469 574.876 165.469 575Z" stroke="black" stroke-width="1.2" stroke-linecap="round" stroke-linejoin="round"/>
<path d="M771.685 558.315C771.25 557.88 770.904 557.363 770.669 556.794C770.433 556.225 770.312 555.616 770.312 555C770.312 554.384 770.433 553.775 770.669 553.206C770.904 552.637 771.25 552.12 771.685 551.685M778.315 551.685C778.75 552.12 779.096 552.637 779.331 553.206C779.567 553.775 779.688 554.384 779.688 555C779.688 555.616 779.567 556.225 779.331 556.794C779.096 557.363 778.75 557.88 778.315 558.315M769.034 560.966C768.25 560.183 767.629 559.253 767.205 558.229C766.781 557.205 766.562 556.108 766.562 555C766.562 553.892 766.781 552.795 767.205 551.771C767.629 550.747 768.25 549.817 769.034 549.034M780.966 549.034C781.75 549.817 782.371 550.747 782.795 551.771C783.219 552.795 783.438 553.892 783.438 555C783.438 556.108 783.219 557.205 782.795 558.229C782.371 559.253 781.75 560.183 780.966 560.966M766.382 563.618C761.622 558.859 761.622 551.143 766.382 546.383M783.617 546.383C788.377 551.141 788.377 558.858 783.617 563.618M775 555H775.01V555.01H775V555ZM775.469 555C775.469 555.124 775.419 555.244 775.331 555.332C775.244 555.419 775.124 555.469 775 555.469C774.876 555.469 774.756 555.419 774.669 555.332C774.581 555.244 774.531 555.124 774.531 555C774.531 554.876 774.581 554.757 774.669 554.669C774.756 554.581 774.876 554.531 775 554.531C775.124 554.531 775.244 554.581 775.331 554.669C775.419 554.757 775.469 554.876 775.469 555Z" stroke="black" stroke-width="1.2" stroke-linecap="round" stroke-linejoin="round"/>
<mask id="path-16-inside-1_56_2" fill="white">
<path d="M2.24219 599H202.235V699H2.24219V599Z"/>
</mask>
<path d="M2.24219 599H202.235V699H2.24219V599Z" fill="#D9D9D9"/>
<path d="M2.24219 599V598H1.24219V599H2.24219ZM202.235 599H203.235V598H202.235V599ZM202.235 699V700H203.235V699H202.235ZM2.24219 699H1.24219V700H2.24219V699ZM2.24219 600H202.235V598H2.24219V600ZM201.235 599V699H203.235V599H201.235ZM202.235 698H2.24219V700H202.235V698ZM3.24219 699V599H1.24219V699H3.24219Z" fill="black" fill-opacity="0.5" mask="url(#path-16-inside-1_56_2)"/>
<g filter="url(#filter0_d_56_2)">
<mask id="path-18-inside-2_56_2" fill="white">
<path d="M2.24219 599H10.4611V698.01H2.24219V599Z"/>
</mask>
<path d="M2.24219 599H10.4611V698.01H2.24219V599Z" fill="#B9B4B4"/>
<path d="M10.4611 599H11.4611V598H10.4611V599ZM2.24219 600H10.4611V598H2.24219V600ZM9.46107 599V698.01H11.4611V599H9.46107Z" fill="black" fill-opacity="0.4" mask="url(#path-18-inside-2_56_2)"/>
<mask id="path-20-inside-3_56_2" fill="white">
<path d="M11.3789 599H19.5978V698.01H11.3789V599Z"/>
</mask>
<path d="M11.3789 599H19.5978V698.01H11.3789V599Z" fill="#B9B4B4"/>
<path d="M19.5978 599H20.5978V598H19.5978V599ZM11.3789 600H19.5978V598H11.3789V600ZM18.5978 599V698.01H20.5978V599H18.5978Z" fill="black" fill-opacity="0.4" mask="url(#path-20-inside-3_56_2)"/>
<mask id="path-22-inside-4_56_2" fill="white">
<path d="M20.5132 599H28.7321V698.01H20.5132V599Z"/>
</mask>
<path d="M20.5132 599H28.7321V698.01H20.5132V599Z" fill="#B9B4B4"/>
<path d="M28.7321 599H29.7321V598H28.7321V599ZM20.5132 600H28.7321V598H20.5132V600ZM27.7321 599V698.01H29.7321V599H27.7321Z" fill="black" fill-opacity="0.4" mask="url(#path-22-inside-4_56_2)"/>
<mask id="path-24-inside-5_56_2" fill="white">
<path d="M29.6392 599H37.858V698.01H29.6392V599Z"/>
</mask>
<path d="M29.6392 599H37.858V698.01H29.6392V599Z" fill="#B9B4B4"/>
<path d="M37.858 599H38.858V598H37.858V599ZM29.6392 600H37.858V598H29.6392V600ZM36.858 599V698.01H38.858V599H36.858Z" fill="black" fill-opacity="0.4" mask="url(#path-24-inside-5_56_2)"/>
<mask id="path-26-inside-6_56_2" fill="white">
<path d="M47.9087 599H56.1276V698.01H47.9087V599Z"/>
</mask>
<path d="M47.9087 599H56.1276V698.01H47.9087V599Z" fill="#B9B4B4"/>
<path d="M56.1276 599H57.1276V598H56.1276V599ZM47.9087 600H56.1276V598H47.9087V600ZM55.1276 599V698.01H57.1276V599H55.1276Z" fill="black" fill-opacity="0.4" mask="url(#path-26-inside-6_56_2)"/>
<mask id="path-28-inside-7_56_2" fill="white">
<path d="M38.7734 599H46.9923V698.01H38.7734V599Z"/>
</mask>
<path d="M38.7734 599H46.9923V698.01H38.7734V599Z" fill="#B9B4B4"/>
<path d="M46.9923 599H47.9923V598H46.9923V599ZM38.7734 600H46.9923V598H38.7734V600ZM45.9923 599V698.01H47.9923V599H45.9923Z" fill="black" fill-opacity="0.4" mask="url(#path-28-inside-7_56_2)"/>
<mask id="path-30-inside-8_56_2" fill="white">
<path d="M84.436 599H92.6549V698.01H84.436V599Z"/>
</mask>
<path d="M84.436 599H92.6549V698.01H84.436V599Z" fill="#B9B4B4"/>
<path d="M92.6549 599H93.6549V598H92.6549V599ZM84.436 600H92.6549V598H84.436V600ZM91.6549 599V698.01H93.6549V599H91.6549Z" fill="black" fill-opacity="0.4" mask="url(#path-30-inside-8_56_2)"/>
<mask id="path-32-inside-9_56_2" fill="white">
<path d="M93.5679 599H101.787V698.01H93.5679V599Z"/>
</mask>
<path d="M93.5679 599H101.787V698.01H93.5679V599Z" fill="#B9B4B4"/>
<path d="M101.787 599H102.787V598H101.787V599ZM93.5679 600H101.787V598H93.5679V600ZM100.787 599V698.01H102.787V599H100.787Z" fill="black" fill-opacity="0.4" mask="url(#path-32-inside-9_56_2)"/>
<mask id="path-34-inside-10_56_2" fill="white">
<path d="M102.698 599H110.917V698.01H102.698V599Z"/>
</mask>
<path d="M102.698 599H110.917V698.01H102.698V599Z" fill="#B9B4B4"/>
<path d="M110.917 599H111.917V598H110.917V599ZM102.698 600H110.917V598H102.698V600ZM109.917 599V698.01H111.917V599H109.917Z" fill="black" fill-opacity="0.4" mask="url(#path-34-inside-10_56_2)"/>
<mask id="path-36-inside-11_56_2" fill="white">
<path d="M111.832 599H120.051V698.01H111.832V599Z"/>
</mask>
<path d="M111.832 599H120.051V698.01H111.832V599Z" fill="#B9B4B4"/>
<path d="M120.051 599H121.051V598H120.051V599ZM111.832 600H120.051V598H111.832V600ZM119.051 599V698.01H121.051V599H119.051Z" fill="black" fill-opacity="0.4" mask="url(#path-36-inside-11_56_2)"/>
<mask id="path-38-inside-12_56_2" fill="white">
<path d="M120.965 599H129.184V698.01H120.965V599Z"/>
</mask>
<path d="M120.965 599H129.184V698.01H120.965V599Z" fill="#B9B4B4"/>
<path d="M129.184 599H130.184V598H129.184V599ZM120.965 600H129.184V598H120.965V600ZM128.184 599V698.01H130.184V599H128.184Z" fill="black" fill-opacity="0.4" mask="url(#path-38-inside-12_56_2)"/>
<mask id="path-40-inside-13_56_2" fill="white">
<path d="M148.354 599H156.573V698.01H148.354V599Z"/>
</mask>
<path d="M148.354 599H156.573V698.01H148.354V599Z" fill="#B9B4B4"/>
<path d="M156.573 599H157.573V598H156.573V599ZM148.354 600H156.573V598H148.354V600ZM155.573 599V698.01H157.573V599H155.573Z" fill="black" fill-opacity="0.4" mask="url(#path-40-inside-13_56_2)"/>
<mask id="path-42-inside-14_56_2" fill="white">
<path d="M157.491 599H165.71V698.01H157.491V599Z"/>
</mask>
<path d="M157.491 599H165.71V698.01H157.491V599Z" fill="#B9B4B4"/>
<path d="M165.71 599H166.71V598H165.71V599ZM157.491 600H165.71V598H157.491V600ZM164.71 599V698.01H166.71V599H164.71Z" fill="black" fill-opacity="0.4" mask="url(#path-42-inside-14_56_2)"/>
<mask id="path-44-inside-15_56_2" fill="white">
<path d="M166.627 599H174.846V698.01H166.627V599Z"/>
</mask>
<path d="M166.627 599H174.846V698.01H166.627V599Z" fill="#B9B4B4"/>
<path d="M174.846 599H175.846V598H174.846V599ZM166.627 600H174.846V598H166.627V600ZM173.846 599V698.01H175.846V599H173.846Z" fill="black" fill-opacity="0.4" mask="url(#path-44-inside-15_56_2)"/>
<mask id="path-46-inside-16_56_2" fill="white">
<path d="M175.751 599H183.97V698.01H175.751V599Z"/>
</mask>
<path d="M175.751 599H183.97V698.01H175.751V599Z" fill="#B9B4B4"/>
<path d="M183.97 599H184.97V598H183.97V599ZM175.751 600H183.97V598H175.751V600ZM182.97 599V698.01H184.97V599H182.97Z" fill="black" fill-opacity="0.4" mask="url(#path-46-inside-16_56_2)"/>
<mask id="path-48-inside-17_56_2" fill="white">
<path d="M184.888 599H193.107V698.01H184.888V599Z"/>
</mask>
<path d="M184.888 599H193.107V698.01H184.888V599Z" fill="#B9B4B4"/>
<path d="M193.107 599H194.107V598H193.107V599ZM184.888 600H193.107V598H184.888V600ZM192.107 599V698.01H194.107V599H192.107Z" fill="black" fill-opacity="0.4" mask="url(#path-48-inside-17_56_2)"/>
<mask id="path-50-inside-18_56_2" fill="white">
<path d="M194.023 599H202.242V698.01H194.023V599Z"/>
</mask>
<path d="M194.023 599H202.242V698.01H194.023V599Z" fill="#B9B4B4"/>
<path d="M202.242 599H203.242V598H202.242V599ZM194.023 600H202.242V598H194.023V600ZM201.242 599V698.01H203.242V599H201.242Z" fill="black" fill-opacity="0.4" mask="url(#path-50-inside-18_56_2)"/>
<mask id="path-52-inside-19_56_2" fill="white">
<path d="M139.229 599H147.448V698.01H139.229V599Z"/>
</mask>
<path d="M139.229 599H147.448V698.01H139.229V599Z" fill="#B9B4B4"/>
<path d="M147.448 599H148.448V598H147.448V599ZM139.229 600H147.448V598H139.229V600ZM146.448 599V698.01H148.448V599H146.448Z" fill="black" fill-opacity="0.4" mask="url(#path-52-inside-19_56_2)"/>
<mask id="path-54-inside-20_56_2" fill="white">
<path d="M130.092 599H138.311V698.01H130.092V599Z"/>
</mask>
<path d="M130.092 599H138.311V698.01H130.092V599Z" fill="#B9B4B4"/>
<path d="M138.311 599H139.311V598H138.311V599ZM130.092 600H138.311V598H130.092V600ZM137.311 599V698.01H139.311V599H137.311Z" fill="black" fill-opacity="0.4" mask="url(#path-54-inside-20_56_2)"/>
<mask id="path-56-inside-21_56_2" fill="white">
<path d="M57.0366 599H65.2555V698.01H57.0366V599Z"/>
</mask>
<path d="M57.0366 599H65.2555V698.01H57.0366V599Z" fill="#B9B4B4"/>
<path d="M65.2555 599H66.2555V598H65.2555V599ZM57.0366 600H65.2555V598H57.0366V600ZM64.2555 599V698.01H66.2555V599H64.2555Z" fill="black" fill-opacity="0.4" mask="url(#path-56-inside-21_56_2)"/>
<mask id="path-58-inside-22_56_2" fill="white">
<path d="M66.1694 599H74.3883V698.01H66.1694V599Z"/>
</mask>
<path d="M66.1694 599H74.3883V698.01H66.1694V599Z" fill="#B9B4B4"/>
<path d="M74.3883 599H75.3883V598H74.3883V599ZM66.1694 600H74.3883V598H66.1694V600ZM73.3883 599V698.01H75.3883V599H73.3883Z" fill="black" fill-opacity="0.4" mask="url(#path-58-inside-22_56_2)"/>
<mask id="path-60-inside-23_56_2" fill="white">
<path d="M75.3062 599H83.525V698.01H75.3062V599Z"/>
</mask>
<path d="M75.3062 599H83.525V698.01H75.3062V599Z" fill="#B9B4B4"/>
<path d="M83.525 599H84.525V598H83.525V599ZM75.3062 600H83.525V598H75.3062V600ZM82.525 599V698.01H84.525V599H82.525Z" fill="black" fill-opacity="0.4" mask="url(#path-60-inside-23_56_2)"/>
</g>
<path d="M451.685 618.315C451.25 617.88 450.904 617.363 450.669 616.794C450.433 616.225 450.312 615.616 450.312 615C450.312 614.384 450.433 613.775 450.669 613.206C450.904 612.637 451.25 612.12 451.685 611.685M458.315 611.685C458.75 612.12 459.096 612.637 459.331 613.206C459.567 613.775 459.688 614.384 459.688 615C459.688 615.616 459.567 616.225 459.331 616.794C459.096 617.363 458.75 617.88 458.315 618.315M449.034 620.966C448.25 620.183 447.629 619.253 447.205 618.229C446.781 617.205 446.562 616.108 446.562 615C446.562 613.892 446.781 612.795 447.205 611.771C447.629 610.747 448.25 609.817 449.034 609.034M460.966 609.034C461.75 609.817 462.371 610.747 462.795 611.771C463.219 612.795 463.438 613.892 463.438 615C463.438 616.108 463.219 617.205 462.795 618.229C462.371 619.253 461.75 620.183 460.966 620.966M446.382 623.618C441.622 618.859 441.622 611.143 446.382 606.383M463.617 606.383C468.377 611.141 468.377 618.858 463.617 623.618M455 615H455.01V615.01H455V615ZM455.469 615C455.469 615.124 455.419 615.244 455.331 615.332C455.244 615.419 455.124 615.469 455 615.469C454.876 615.469 454.756 615.419 454.669 615.332C454.581 615.244 454.531 615.124 454.531 615C454.531 614.876 454.581 614.757 454.669 614.669C454.756 614.581 454.876 614.531 455 614.531C455.124 614.531 455.244 614.581 455.331 614.669C455.419 614.757 455.469 614.876 455.469 615Z" stroke="black" stroke-width="1.2" stroke-linecap="round" stroke-linejoin="round"/>
<path d="M451.685 118.315C451.25 117.88 450.904 117.363 450.669 116.794C450.433 116.225 450.312 115.616 450.312 115C450.312 114.384 450.433 113.775 450.669 113.206C450.904 112.637 451.25 112.12 451.685 111.685M458.315 111.685C458.75 112.12 459.096 112.637 459.331 113.206C459.567 113.775 459.688 114.384 459.688 115C459.688 115.616 459.567 116.225 459.331 116.794C459.096 117.363 458.75 117.88 458.315 118.315M449.034 120.966C448.25 120.183 447.629 119.253 447.205 118.229C446.781 117.205 446.562 116.108 446.562 115C446.562 113.892 446.781 112.795 447.205 111.771C447.629 110.747 448.25 109.817 449.034 109.034M460.966 109.034C461.75 109.817 462.371 110.747 462.795 111.771C463.219 112.795 463.438 113.892 463.438 115C463.438 116.108 463.219 117.205 462.795 118.229C462.371 119.253 461.75 120.183 460.966 120.966M446.382 123.617C441.622 118.859 441.622 111.142 446.382 106.382M463.617 106.382C468.377 111.141 468.377 118.857 463.617 123.617M455 115H455.01V115.01H455V115ZM455.469 115C455.469 115.124 455.419 115.243 455.331 115.331C455.244 115.419 455.124 115.469 455 115.469C454.876 115.469 454.756 115.419 454.669 115.331C454.581 115.243 454.531 115.124 454.531 115C454.531 114.876 454.581 114.756 454.669 114.668C454.756 114.581 454.876 114.531 455 114.531C455.124 114.531 455.244 114.581 455.331 114.668C455.419 114.756 455.469 114.876 455.469 115Z" stroke="black" stroke-width="1.2" stroke-linecap="round" stroke-linejoin="round"/>
</g>
<defs>
<filter id="filter0_d_56_2" x="-1.75781" y="599" width="208" height="107.01" filterUnits="userSpaceOnUse" color-interpolation-filters="sRGB">
<feFlood flood-opacity="0" result="BackgroundImageFix"/>
<feColorMatrix in="SourceAlpha" type="matrix" values="0 0 0 0 0 0 0 0 0 0 0 0 0 0 0 0 0 0 127 0" result="hardAlpha"/>
<feOffset dy="4"/>
<feGaussianBlur stdDeviation="2"/>
<feComposite in2="hardAlpha" operator="out"/>
<feColorMatrix type="matrix" values="0 0 0 0 0 0 0 0 0 0 0 0 0 0 0 0 0 0 0.25 0"/>
<feBlend mode="normal" in2="BackgroundImageFix" result="effect1_dropShadow_56_2"/>
<feBlend mode="normal" in="SourceGraphic" in2="effect1_dropShadow_56_2" result="shape"/>
</filter>
<clipPath id="clip0_56_2">
<rect width="900" height="700" fill="white"/>
</clipPath>
</defs>
</svg>
