<svg width="900" height="700" viewBox="0 0 900 700" fill="none" xmlns="http://www.w3.org/2000/svg">
<g clip-path="url(#clip0_25_59)">
<rect width="900" height="700" fill="white"/>
<rect x="0.5" y="0.5" width="899" height="699" fill="#D9D9D9" stroke="black"/>
<path d="M400 0H500V8H400V0Z" fill="#B7B1B1"/>
<rect x="500.5" y="0.5" width="399" height="699" fill="#E8E0D7" stroke="black"/>
<rect x="500" y="50" width="5" height="54" fill="#A9A2A2"/>
<rect x="500" y="550" width="5" height="54" fill="#A9A2A2"/>
<path d="M611.685 418.315C611.25 417.88 610.904 417.363 610.669 416.794C610.433 416.225 610.312 415.616 610.312 415C610.312 414.384 610.433 413.775 610.669 413.206C610.904 412.637 611.25 412.12 611.685 411.685M618.315 411.685C618.75 412.12 619.096 412.637 619.331 413.206C619.567 413.775 619.688 414.384 619.688 415C619.688 415.616 619.567 416.225 619.331 416.794C619.096 417.363 618.75 417.88 618.315 418.315M609.034 420.966C608.25 420.183 607.629 419.253 607.205 418.229C606.781 417.205 606.562 416.108 606.562 415C606.562 413.892 606.781 412.795 607.205 411.771C607.629 410.747 608.25 409.817 609.034 409.034M620.966 409.034C621.75 409.817 622.371 410.747 622.795 411.771C623.219 412.795 623.438 413.892 623.438 415C623.438 416.108 623.219 417.205 622.795 418.229C622.371 419.253 621.75 420.183 620.966 420.966M606.382 423.617C601.622 418.859 601.622 411.142 606.382 406.382M623.617 406.382C628.377 411.141 628.377 418.857 623.617 423.617M615 415H615.01V415.01H615V415ZM615.469 415C615.469 415.124 615.419 415.243 615.331 415.331C615.244 415.419 615.124 415.469 615 415.469C614.876 415.469 614.756 415.419 614.669 415.331C614.581 415.243 614.531 415.124 614.531 415C614.531 414.876 614.581 414.756 614.669 414.668C614.756 414.581 614.876 414.531 615 414.531C615.124 414.531 615.244 414.581 615.331 414.668C615.419 414.756 615.469 414.876 615.469 415Z" stroke="black" stroke-width="1.2" stroke-linecap="round" stroke-linejoin="round"/>
<path d="M771.685 558.315C771.25 557.88 770.904 557.363 770.669 556.794C770.433 556.225 770.312 555.616 770.312 555C770.312 554.384 770.433 553.775 770.669 553.206C770.904 552.637 771.25 552.12 771.685 551.685M778.315 551.685C778.75 552.12 779.096 552.637 779.331 553.206C779.567 553.775 779.688 554.384 779.688 555C779.688 555.616 779.567 556.225 779.331 556.794C779.096 557.363 778.75 557.88 778.315 558.315M769.034 560.966C768.25 560.183 767.629 559.253 767.205 558.229C766.781 557.205 766.562 556.108 766.562 555C766.562 553.892 766.781 552.795 767.205 551.771C767.629 550.747 768.25 549.817 769.034 549.034M780.966 549.034C781.75 549.817 782.371 550.747 782.795 551.771C783.219 552.795 783.438 553.892 783.438 555C783.438 556.108 783.219 557.205 782.795 558.229C782.371 559.253 781.75 560.183 780.966 560.966M766.382 563.617C761.622 558.859 761.622 551.142 766.382 546.382M783.617 546.382C788.377 551.141 788.377 558.857 783.617 563.617M775 555H775.01V555.01H775V555ZM775.469 555C775.469 555.124 775.419 555.243 775.331 555.331C775.244 555.419 775.124 555.469 775 555.469C774.876 555.469 774.756 555.419 774.669 555.331C774.581 555.243 774.531 555.124 774.531 555C774.531 554.876 774.581 554.756 774.669 554.668C774.756 554.581 774.876 554.531 775 554.531C775.124 554.531 775.244 554.581 775.331 554.668C775.419 554.756 775.469 554.876 775.469 555Z" stroke="black" stroke-width="1.2" stroke-linecap="round" stroke-linejoin="round"/>
<path d="M751.685 118.315C751.25 117.88 750.904 117.363 750.669 116.794C750.433 116.225 750.312 115.616 750.312 115C750.312 114.384 750.433 113.775 750.669 113.206C750.904 112.637 751.25 112.12 751.685 111.685M758.315 111.685C758.75 112.12 759.096 112.637 759.331 113.206C759.567 113.775 759.688 114.384 759.688 115C759.688 115.616 759.567 116.225 759.331 116.794C759.096 117.363 758.75 117.88 758.315 118.315M749.034 120.966C748.25 120.183 747.629 119.253 747.205 118.229C746.781 117.205 746.562 116.108 746.562 115C746.562 113.892 746.781 112.795 747.205 111.771C747.629 110.747 748.25 109.817 749.034 109.034M760.966 109.034C761.75 109.817 762.371 110.747 762.795 111.771C763.219 112.795 763.438 113.892 763.438 115C763.438 116.108 763.219 117.205 762.795 118.229C762.371 119.253 761.75 120.183 760.966 120.966M746.382 123.618C741.622 118.859 741.622 111.143 746.382 106.383M763.617 106.383C768.377 111.141 768.377 118.858 763.617 123.618M755 115H755.01V115.01H755V115ZM755.469 115C755.469 115.124 755.419 115.244 755.331 115.331C755.244 115.419 755.124 115.469 755 115.469C754.876 115.469 754.756 115.419 754.669 115.331C754.581 115.244 754.531 115.124 754.531 115C754.531 114.876 754.581 114.756 754.669 114.669C754.756 114.581 754.876 114.531 755 114.531C755.124 114.531 755.244 114.581 755.331 114.669C755.419 114.756 755.469 114.876 755.469 115Z" stroke="black" stroke-width="1.2" stroke-linecap="round" stroke-linejoin="round"/>
<rect x="0.5" y="0.5" width="399" height="299" fill="#E8E0D7" stroke="black"/>
<rect x="395" y="140" width="5" height="54" fill="#A9A2A2"/>
<rect x="235" y="295" width="54" height="5" fill="#9B9898"/>
<path d="M111.685 118.315C111.25 117.88 110.904 117.363 110.669 116.794C110.433 116.225 110.312 115.616 110.312 115C110.312 114.384 110.433 113.775 110.669 113.206C110.904 112.637 111.25 112.12 111.685 111.685M118.315 111.685C118.75 112.12 119.096 112.637 119.331 113.206C119.567 113.775 119.688 114.384 119.688 115C119.688 115.616 119.567 116.225 119.331 116.794C119.096 117.363 118.75 117.88 118.315 118.315M109.034 120.966C108.25 120.183 107.629 119.253 107.205 118.229C106.781 117.205 106.562 116.108 106.562 115C106.562 113.892 106.781 112.795 107.205 111.771C107.629 110.747 108.25 109.817 109.034 109.034M120.966 109.034C121.75 109.817 122.371 110.747 122.795 111.771C123.219 112.795 123.438 113.892 123.438 115C123.438 116.108 123.219 117.205 122.795 118.229C122.371 119.253 121.75 120.183 120.966 120.966M106.382 123.618C101.622 118.859 101.622 111.143 106.382 106.383M123.617 106.383C128.377 111.141 128.377 118.858 123.617 123.618M115 115H115.01V115.01H115V115ZM115.469 115C115.469 115.124 115.419 115.244 115.331 115.331C115.244 115.419 115.124 115.469 115 115.469C114.876 115.469 114.756 115.419 114.669 115.331C114.581 115.244 114.531 115.124 114.531 115C114.531 114.876 114.581 114.756 114.669 114.669C114.756 114.581 114.876 114.531 115 114.531C115.124 114.531 115.244 114.581 115.331 114.669C115.419 114.756 115.469 114.876 115.469 115Z" stroke="black" stroke-width="1.2" stroke-linecap="round" stroke-linejoin="round"/>
<path d="M381.685 288.315C381.25 287.88 380.904 287.363 380.669 286.794C380.433 286.225 380.312 285.616 380.312 285C380.312 284.384 380.433 283.775 380.669 283.206C380.904 282.637 381.25 282.12 381.685 281.685M388.315 281.685C388.75 282.12 389.096 282.637 389.331 283.206C389.567 283.775 389.688 284.384 389.688 285C389.688 285.616 389.567 286.225 389.331 286.794C389.096 287.363 388.75 287.88 388.315 288.315M379.034 290.966C378.25 290.183 377.629 289.253 377.205 288.229C376.781 287.205 376.562 286.108 376.562 285C376.562 283.892 376.781 282.795 377.205 281.771C377.629 280.747 378.25 279.817 379.034 279.034M390.966 279.034C391.75 279.817 392.371 280.747 392.795 281.771C393.219 282.795 393.438 283.892 393.438 285C393.438 286.108 393.219 287.205 392.795 288.229C392.371 289.253 391.75 290.183 390.966 290.966M376.382 293.618C371.622 288.859 371.622 281.143 376.382 276.383M393.617 276.383C398.377 281.141 398.377 288.858 393.617 293.618M385 285H385.01V285.01H385V285ZM385.469 285C385.469 285.124 385.419 285.244 385.331 285.331C385.244 285.419 385.124 285.469 385 285.469C384.876 285.469 384.756 285.419 384.669 285.331C384.581 285.244 384.531 285.124 384.531 285C384.531 284.876 384.581 284.756 384.669 284.669C384.756 284.581 384.876 284.531 385 284.531C385.124 284.531 385.244 284.581 385.331 284.669C385.419 284.756 385.469 284.876 385.469 285Z" stroke="black" stroke-width="1.2" stroke-linecap="round" stroke-linejoin="round"/>
<path d="M111.685 288.315C111.25 287.88 110.904 287.363 110.669 286.794C110.433 286.225 110.312 285.616 110.312 285C110.312 284.384 110.433 283.775 110.669 283.206C110.904 282.637 111.25 282.12 111.685 281.685M118.315 281.685C118.75 282.12 119.096 282.637 119.331 283.206C119.567 283.775 119.688 284.384 119.688 285C119.688 285.616 119.567 286.225 119.331 286.794C119.096 287.363 118.75 287.88 118.315 288.315M109.034 290.966C108.25 290.183 107.629 289.253 107.205 288.229C106.781 287.205 106.562 286.108 106.562 285C106.562 283.892 106.781 282.795 107.205 281.771C107.629 280.747 108.25 279.817 109.034 279.034M120.966 279.034C121.75 279.817 122.371 280.747 122.795 281.771C123.219 282.795 123.438 283.892 123.438 285C123.438 286.108 123.219 287.205 122.795 288.229C122.371 289.253 121.75 290.183 120.966 290.966M106.382 293.618C101.622 288.859 101.622 281.143 106.382 276.383M123.617 276.383C128.377 281.141 128.377 288.858 123.617 293.618M115 285H115.01V285.01H115V285ZM115.469 285C115.469 285.124 115.419 285.244 115.331 285.331C115.244 285.419 115.124 285.469 115 285.469C114.876 285.469 114.756 285.419 114.669 285.331C114.581 285.244 114.531 285.124 114.531 285C114.531 284.876 114.581 284.756 114.669 284.669C114.756 284.581 114.876 284.531 115 284.531C115.124 284.531 115.244 284.581 115.331 284.669C115.419 284.756 115.469 284.876 115.469 285Z" stroke="black" stroke-width="1.2" stroke-linecap="round" stroke-linejoin="round"/>
<rect x="0.5" y="400.5" width="399" height="299" fill="#E8E0D7" stroke="black"/>
<rect x="395" y="500" width="5" height="54" fill="#A9A2A2"/>
<rect x="70" y="400" width="54" height="5" fill="#9B9898"/>
<path d="M161.685 578.315C161.25 577.88 160.904 577.363 160.669 576.794C160.433 576.225 160.312 575.616 160.312 575C160.312 574.384 160.433 573.775 160.669 573.206C160.904 572.637 161.25 572.12 161.685 571.685M168.315 571.685C168.75 572.12 169.096 572.637 169.331 573.206C169.567 573.775 169.688 574.384 169.688 575C169.688 575.616 169.567 576.225 169.331 576.794C169.096 577.363 168.75 577.88 168.315 578.315M159.034 580.966C158.25 580.183 157.629 579.253 157.205 578.229C156.781 577.205 156.562 576.108 156.562 575C156.562 573.892 156.781 572.795 157.205 571.771C157.629 570.747 158.25 569.817 159.034 569.034M170.966 569.034C171.75 569.817 172.371 570.747 172.795 571.771C173.219 572.795 173.438 573.892 173.438 575C173.438 576.108 173.219 577.205 172.795 578.229C172.371 579.253 171.75 580.183 170.966 580.966M156.382 583.617C151.622 578.859 151.622 571.142 156.382 566.382M173.617 566.382C178.377 571.141 178.377 578.857 173.617 583.617M165 575H165.01V575.01H165V575ZM165.469 575C165.469 575.124 165.419 575.243 165.331 575.331C165.244 575.419 165.124 575.469 165 575.469C164.876 575.469 164.756 575.419 164.669 575.331C164.581 575.243 164.531 575.124 164.531 575C164.531 574.876 164.581 574.756 164.669 574.668C164.756 574.581 164.876 574.531 165 574.531C165.124 574.531 165.244 574.581 165.331 574.668C165.419 574.756 165.469 574.876 165.469 575Z" stroke="black" stroke-width="1.2" stroke-linecap="round" stroke-linejoin="round"/>
<mask id="path-19-inside-1_25_59" fill="white">
<path d="M1 599H201V700H1V599Z"/>
</mask>
<path d="M1 599H201V700H1V599Z" fill="#D9D9D9"/>
<path d="M1 599V598H0V599H1ZM201 599H202V598H201V599ZM201 700V701H202V700H201ZM1 700H0V701H1V700ZM1 600H201V598H1V600ZM200 599V700H202V599H200ZM201 699H1V701H201V699ZM2 700V599H0V700H2Z" fill="black" fill-opacity="0.5" mask="url(#path-19-inside-1_25_59)"/>
<g filter="url(#filter0_d_25_59)">
<mask id="path-21-inside-2_25_59" fill="white">
<path d="M1 599H9.21918V699H1V599Z"/>
</mask>
<path d="M1 599H9.21918V699H1V599Z" fill="#B9B4B4"/>
<path d="M9.21918 599H10.2192V598H9.21918V599ZM1 600H9.21918V598H1V600ZM8.21918 599V699H10.2192V599H8.21918Z" fill="black" fill-opacity="0.4" mask="url(#path-21-inside-2_25_59)"/>
<mask id="path-23-inside-3_25_59" fill="white">
<path d="M10.1323 599H18.3515V699H10.1323V599Z"/>
</mask>
<path d="M10.1323 599H18.3515V699H10.1323V599Z" fill="#B9B4B4"/>
<path d="M18.3515 599H19.3515V598H18.3515V599ZM10.1323 600H18.3515V598H10.1323V600ZM17.3515 599V699H19.3515V599H17.3515Z" fill="black" fill-opacity="0.4" mask="url(#path-23-inside-3_25_59)"/>
<mask id="path-25-inside-4_25_59" fill="white">
<path d="M19.2646 599H27.4838V699H19.2646V599Z"/>
</mask>
<path d="M19.2646 599H27.4838V699H19.2646V599Z" fill="#B9B4B4"/>
<path d="M27.4838 599H28.4838V598H27.4838V599ZM19.2646 600H27.4838V598H19.2646V600ZM26.4838 599V699H28.4838V599H26.4838Z" fill="black" fill-opacity="0.4" mask="url(#path-25-inside-4_25_59)"/>
<mask id="path-27-inside-5_25_59" fill="white">
<path d="M28.397 599H36.6161V699H28.397V599Z"/>
</mask>
<path d="M28.397 599H36.6161V699H28.397V599Z" fill="#B9B4B4"/>
<path d="M36.6161 599H37.6161V598H36.6161V599ZM28.397 600H36.6161V598H28.397V600ZM35.6161 599V699H37.6161V599H35.6161Z" fill="black" fill-opacity="0.4" mask="url(#path-27-inside-5_25_59)"/>
<mask id="path-29-inside-6_25_59" fill="white">
<path d="M46.6621 599H54.8813V699H46.6621V599Z"/>
</mask>
<path d="M46.6621 599H54.8813V699H46.6621V599Z" fill="#B9B4B4"/>
<path d="M54.8813 599H55.8813V598H54.8813V599ZM46.6621 600H54.8813V598H46.6621V600ZM53.8813 599V699H55.8813V599H53.8813Z" fill="black" fill-opacity="0.4" mask="url(#path-29-inside-6_25_59)"/>
<mask id="path-31-inside-7_25_59" fill="white">
<path d="M37.5298 599H45.749V699H37.5298V599Z"/>
</mask>
<path d="M37.5298 599H45.749V699H37.5298V599Z" fill="#B9B4B4"/>
<path d="M45.749 599H46.749V598H45.749V599ZM37.5298 600H45.749V598H37.5298V600ZM44.749 599V699H46.749V599H44.749Z" fill="black" fill-opacity="0.4" mask="url(#path-31-inside-7_25_59)"/>
<mask id="path-33-inside-8_25_59" fill="white">
<path d="M83.1919 599H91.4111V699H83.1919V599Z"/>
</mask>
<path d="M83.1919 599H91.4111V699H83.1919V599Z" fill="#B9B4B4"/>
<path d="M91.4111 599H92.4111V598H91.4111V599ZM83.1919 600H91.4111V598H83.1919V600ZM90.4111 599V699H92.4111V599H90.4111Z" fill="black" fill-opacity="0.4" mask="url(#path-33-inside-8_25_59)"/>
<mask id="path-35-inside-9_25_59" fill="white">
<path d="M92.3242 599H100.543V699H92.3242V599Z"/>
</mask>
<path d="M92.3242 599H100.543V699H92.3242V599Z" fill="#B9B4B4"/>
<path d="M100.543 599H101.543V598H100.543V599ZM92.3242 600H100.543V598H92.3242V600ZM99.5434 599V699H101.543V599H99.5434Z" fill="black" fill-opacity="0.4" mask="url(#path-35-inside-9_25_59)"/>
<mask id="path-37-inside-10_25_59" fill="white">
<path d="M101.456 599H109.675V699H101.456V599Z"/>
</mask>
<path d="M101.456 599H109.675V699H101.456V599Z" fill="#B9B4B4"/>
<path d="M109.675 599H110.675V598H109.675V599ZM101.456 600H109.675V598H101.456V600ZM108.675 599V699H110.675V599H108.675Z" fill="black" fill-opacity="0.4" mask="url(#path-37-inside-10_25_59)"/>
<mask id="path-39-inside-11_25_59" fill="white">
<path d="M110.589 599H118.808V699H110.589V599Z"/>
</mask>
<path d="M110.589 599H118.808V699H110.589V599Z" fill="#B9B4B4"/>
<path d="M118.808 599H119.808V598H118.808V599ZM110.589 600H118.808V598H110.589V600ZM117.808 599V699H119.808V599H117.808Z" fill="black" fill-opacity="0.4" mask="url(#path-39-inside-11_25_59)"/>
<mask id="path-41-inside-12_25_59" fill="white">
<path d="M119.721 599H127.94V699H119.721V599Z"/>
</mask>
<path d="M119.721 599H127.94V699H119.721V599Z" fill="#B9B4B4"/>
<path d="M127.94 599H128.94V598H127.94V599ZM119.721 600H127.94V598H119.721V600ZM126.94 599V699H128.94V599H126.94Z" fill="black" fill-opacity="0.4" mask="url(#path-41-inside-12_25_59)"/>
<mask id="path-43-inside-13_25_59" fill="white">
<path d="M147.119 599H155.338V699H147.119V599Z"/>
</mask>
<path d="M147.119 599H155.338V699H147.119V599Z" fill="#B9B4B4"/>
<path d="M155.338 599H156.338V598H155.338V599ZM147.119 600H155.338V598H147.119V600ZM154.338 599V699H156.338V599H154.338Z" fill="black" fill-opacity="0.4" mask="url(#path-43-inside-13_25_59)"/>
<mask id="path-45-inside-14_25_59" fill="white">
<path d="M156.251 599H164.47V699H156.251V599Z"/>
</mask>
<path d="M156.251 599H164.47V699H156.251V599Z" fill="#B9B4B4"/>
<path d="M164.47 599H165.47V598H164.47V599ZM156.251 600H164.47V598H156.251V600ZM163.47 599V699H165.47V599H163.47Z" fill="black" fill-opacity="0.4" mask="url(#path-45-inside-14_25_59)"/>
<mask id="path-47-inside-15_25_59" fill="white">
<path d="M165.383 599H173.602V699H165.383V599Z"/>
</mask>
<path d="M165.383 599H173.602V699H165.383V599Z" fill="#B9B4B4"/>
<path d="M173.602 599H174.602V598H173.602V599ZM165.383 600H173.602V598H165.383V600ZM172.602 599V699H174.602V599H172.602Z" fill="black" fill-opacity="0.4" mask="url(#path-47-inside-15_25_59)"/>
<mask id="path-49-inside-16_25_59" fill="white">
<path d="M174.516 599H182.735V699H174.516V599Z"/>
</mask>
<path d="M174.516 599H182.735V699H174.516V599Z" fill="#B9B4B4"/>
<path d="M182.735 599H183.735V598H182.735V599ZM174.516 600H182.735V598H174.516V600ZM181.735 599V699H183.735V599H181.735Z" fill="black" fill-opacity="0.4" mask="url(#path-49-inside-16_25_59)"/>
<mask id="path-51-inside-17_25_59" fill="white">
<path d="M183.648 599H191.868V699H183.648V599Z"/>
</mask>
<path d="M183.648 599H191.868V699H183.648V599Z" fill="#B9B4B4"/>
<path d="M191.868 599H192.868V598H191.868V599ZM183.648 600H191.868V598H183.648V600ZM190.868 599V699H192.868V599H190.868Z" fill="black" fill-opacity="0.4" mask="url(#path-51-inside-17_25_59)"/>
<mask id="path-53-inside-18_25_59" fill="white">
<path d="M192.781 599H201V699H192.781V599Z"/>
</mask>
<path d="M192.781 599H201V699H192.781V599Z" fill="#B9B4B4"/>
<path d="M201 599H202V598H201V599ZM192.781 600H201V598H192.781V600ZM200 599V699H202V599H200Z" fill="black" fill-opacity="0.4" mask="url(#path-53-inside-18_25_59)"/>
<mask id="path-55-inside-19_25_59" fill="white">
<path d="M137.986 599H146.206V699H137.986V599Z"/>
</mask>
<path d="M137.986 599H146.206V699H137.986V599Z" fill="#B9B4B4"/>
<path d="M146.206 599H147.206V598H146.206V599ZM137.986 600H146.206V598H137.986V600ZM145.206 599V699H147.206V599H145.206Z" fill="black" fill-opacity="0.4" mask="url(#path-55-inside-19_25_59)"/>
<mask id="path-57-inside-20_25_59" fill="white">
<path d="M128.854 599H137.073V699H128.854V599Z"/>
</mask>
<path d="M128.854 599H137.073V699H128.854V599Z" fill="#B9B4B4"/>
<path d="M137.073 599H138.073V598H137.073V599ZM128.854 600H137.073V598H128.854V600ZM136.073 599V699H138.073V599H136.073Z" fill="black" fill-opacity="0.4" mask="url(#path-57-inside-20_25_59)"/>
<mask id="path-59-inside-21_25_59" fill="white">
<path d="M55.7944 599H64.0136V699H55.7944V599Z"/>
</mask>
<path d="M55.7944 599H64.0136V699H55.7944V599Z" fill="#B9B4B4"/>
<path d="M64.0136 599H65.0136V598H64.0136V599ZM55.7944 600H64.0136V598H55.7944V600ZM63.0136 599V699H65.0136V599H63.0136Z" fill="black" fill-opacity="0.4" mask="url(#path-59-inside-21_25_59)"/>
<mask id="path-61-inside-22_25_59" fill="white">
<path d="M64.9268 599H73.1459V699H64.9268V599Z"/>
</mask>
<path d="M64.9268 599H73.1459V699H64.9268V599Z" fill="#B9B4B4"/>
<path d="M73.1459 599H74.1459V598H73.1459V599ZM64.9268 600H73.1459V598H64.9268V600ZM72.1459 599V699H74.1459V599H72.1459Z" fill="black" fill-opacity="0.4" mask="url(#path-61-inside-22_25_59)"/>
<mask id="path-63-inside-23_25_59" fill="white">
<path d="M74.0591 599H82.2783V699H74.0591V599Z"/>
</mask>
<path d="M74.0591 599H82.2783V699H74.0591V599Z" fill="#B9B4B4"/>
<path d="M82.2783 599H83.2783V598H82.2783V599ZM74.0591 600H82.2783V598H74.0591V600ZM81.2783 599V699H83.2783V599H81.2783Z" fill="black" fill-opacity="0.4" mask="url(#path-63-inside-23_25_59)"/>
</g>
<path d="M451.685 118.315C451.25 117.88 450.904 117.363 450.669 116.794C450.433 116.225 450.312 115.616 450.312 115C450.312 114.384 450.433 113.775 450.669 113.206C450.904 112.637 451.25 112.12 451.685 111.685M458.315 111.685C458.75 112.12 459.096 112.637 459.331 113.206C459.567 113.775 459.688 114.384 459.688 115C459.688 115.616 459.567 116.225 459.331 116.794C459.096 117.363 458.75 117.88 458.315 118.315M449.034 120.966C448.25 120.183 447.629 119.253 447.205 118.229C446.781 117.205 446.562 116.108 446.562 115C446.562 113.892 446.781 112.795 447.205 111.771C447.629 110.747 448.25 109.817 449.034 109.034M460.966 109.034C461.75 109.817 462.371 110.747 462.795 111.771C463.219 112.795 463.438 113.892 463.438 115C463.438 116.108 463.219 117.205 462.795 118.229C462.371 119.253 461.75 120.183 460.966 120.966M446.382 123.618C441.622 118.859 441.622 111.143 446.382 106.383M463.617 106.383C468.377 111.141 468.377 118.858 463.617 123.618M455 115H455.01V115.01H455V115ZM455.469 115C455.469 115.124 455.419 115.244 455.331 115.331C455.244 115.419 455.124 115.469 455 115.469C454.876 115.469 454.756 115.419 454.669 115.331C454.581 115.244 454.531 115.124 454.531 115C454.531 114.876 454.581 114.756 454.669 114.669C454.756 114.581 454.876 114.531 455 114.531C455.124 114.531 455.244 114.581 455.331 114.669C455.419 114.756 455.469 114.876 455.469 115Z" stroke="black" stroke-width="1.2" stroke-linecap="round" stroke-linejoin="round"/>
<path d="M451.685 618.315C451.25 617.88 450.904 617.363 450.669 616.794C450.433 616.225 450.312 615.616 450.312 615C450.312 614.384 450.433 613.775 450.669 613.206C450.904 612.637 451.25 612.12 451.685 611.685M458.315 611.685C458.75 612.12 459.096 612.637 459.331 613.206C459.567 613.775 459.688 614.384 459.688 615C459.688 615.616 459.567 616.225 459.331 616.794C459.096 617.363 458.75 617.88 458.315 618.315M449.034 620.966C448.25 620.183 447.629 619.253 447.205 618.229C446.781 617.205 446.562 616.108 446.562 615C446.562 613.892 446.781 612.795 447.205 611.771C447.629 610.747 448.25 609.817 449.034 609.034M460.966 609.034C461.75 609.817 462.371 610.747 462.795 611.771C463.219 612.795 463.438 613.892 463.438 615C463.438 616.108 463.219 617.205 462.795 618.229C462.371 619.253 461.75 620.183 460.966 620.966M446.382 623.617C441.622 618.859 441.622 611.142 446.382 606.382M463.617 606.382C468.377 611.141 468.377 618.857 463.617 623.617M455 615H455.01V615.01H455V615ZM455.469 615C455.469 615.124 455.419 615.243 455.331 615.331C455.244 615.419 455.124 615.469 455 615.469C454.876 615.469 454.756 615.419 454.669 615.331C454.581 615.243 454.531 615.124 454.531 615C454.531 614.876 454.581 614.756 454.669 614.668C454.756 614.581 454.876 614.531 455 614.531C455.124 614.531 455.244 614.581 455.331 614.668C455.419 614.756 455.469 614.876 455.469 615Z" stroke="black" stroke-width="1.2" stroke-linecap="round" stroke-linejoin="round"/>
</g>
<defs>
<filter id="filter0_d_25_59" x="-3" y="599" width="208" height="108" filterUnits="userSpaceOnUse" color-interpolation-filters="sRGB">
<feFlood flood-opacity="0" result="BackgroundImageFix"/>
<feColorMatrix in="SourceAlpha" type="matrix" values="0 0 0 0 0 0 0 0 0 0 0 0 0 0 0 0 0 0 127 0" result="hardAlpha"/>
<feOffset dy="4"/>
<feGaussianBlur stdDeviation="2"/>
<feComposite in2="hardAlpha" operator="out"/>
<feColorMatrix type="matrix" values="0 0 0 0 0 0 0 0 0 0 0 0 0 0 0 0 0 0 0.25 0"/>
<feBlend mode="normal" in2="BackgroundImageFix" result="effect1_dropShadow_25_59"/>
<feBlend mode="normal" in="SourceGraphic" in2="effect1_dropShadow_25_59" result="shape"/>
</filter>
<clipPath id="clip0_25_59">
<rect width="900" height="700" fill="white"/>
</clipPath>
</defs>
</svg>
